<svg width="56" height="56" viewBox="0 0 56 56" fill="none" xmlns="http://www.w3.org/2000/svg">
<rect width="56" height="56" rx="16" fill="url(#paint0_linear)"/>
<path d="M38 38.5C36.5 38.5 35.2 37.8 34.2 36.6L29.5 30.5C28.8 29.6 27.2 29.6 26.5 30.5L21.8 36.6C20.8 37.8 19.5 38.5 18 38.5C14.7 38.5 12 35.8 12 32.5C12 29.2 14.7 26.5 18 26.5C19.5 26.5 20.8 27.2 21.8 28.4L26.5 34.5C27.2 35.4 28.8 35.4 29.5 34.5L34.2 28.4C35.2 27.2 36.5 26.5 38 26.5C41.3 26.5 44 29.2 44 32.5C44 35.8 41.3 38.5 38 38.5ZM18 29.5C16.3 29.5 15 30.8 15 32.5C15 34.2 16.3 35.5 18 35.5C18.8 35.5 19.5 35.2 20 34.6L23.5 30C22.5 29.7 21.5 29.5 20.5 29.5H18ZM38 35.5C39.7 35.5 41 34.2 41 32.5C41 30.8 39.7 29.5 38 29.5C37.2 29.5 36.5 29.8 36 30.4L32.5 35C33.5 35.3 34.5 35.5 35.5 35.5H38Z" fill="white"/>
<defs>
<linearGradient id="paint0_linear" x1="0" y1="0" x2="56" y2="56" gradientUnits="userSpaceOnUse">
<stop stop-color="#FF007A"/>
<stop offset="1" stop-color="#7A00FF"/>
</linearGradient>
</defs>
</svg>
